<mxfile host="Electron" modified="2024-01-02T13:32:34.966Z" agent="Mozilla/5.0 (Windows NT 10.0; Win64; x64) AppleWebKit/537.36 (KHTML, like Gecko) draw.io/22.0.3 Chrome/114.0.5735.289 Electron/25.8.4 Safari/537.36" etag="mQNU2aNwUZxraR1VOTLg" version="22.0.3" type="device">
  <diagram name="Page-1" id="2iokqd_nGcSUhwvzLgzX">
    <mxGraphModel dx="823" dy="472" grid="1" gridSize="10" guides="1" tooltips="1" connect="1" arrows="1" fold="1" page="1" pageScale="1" pageWidth="827" pageHeight="1169" math="0" shadow="0">
      <root>
        <mxCell id="0" />
        <mxCell id="1" parent="0" />
        <mxCell id="hARLpwjasESxxqnFSny7-12" value="" style="rounded=1;whiteSpace=wrap;html=1;fillColor=#dae8fc;strokeColor=#6c8ebf;opacity=50;" vertex="1" parent="1">
          <mxGeometry x="230" y="420" width="340" height="90" as="geometry" />
        </mxCell>
        <mxCell id="hARLpwjasESxxqnFSny7-1" value="Home" style="rounded=0;whiteSpace=wrap;html=1;" vertex="1" parent="1">
          <mxGeometry x="360" y="360" width="80" height="40" as="geometry" />
        </mxCell>
        <mxCell id="hARLpwjasESxxqnFSny7-6" style="rounded=0;orthogonalLoop=1;jettySize=auto;html=1;entryX=0.5;entryY=1;entryDx=0;entryDy=0;startArrow=classicThin;startFill=1;endArrow=classicThin;endFill=1;" edge="1" parent="1" source="hARLpwjasESxxqnFSny7-2" target="hARLpwjasESxxqnFSny7-1">
          <mxGeometry relative="1" as="geometry" />
        </mxCell>
        <mxCell id="hARLpwjasESxxqnFSny7-9" style="edgeStyle=orthogonalEdgeStyle;rounded=0;orthogonalLoop=1;jettySize=auto;html=1;entryX=0;entryY=0.5;entryDx=0;entryDy=0;startArrow=classicThin;startFill=1;endArrow=classicThin;endFill=1;" edge="1" parent="1" source="hARLpwjasESxxqnFSny7-2" target="hARLpwjasESxxqnFSny7-3">
          <mxGeometry relative="1" as="geometry" />
        </mxCell>
        <mxCell id="hARLpwjasESxxqnFSny7-2" value="TOPSIS" style="rounded=0;whiteSpace=wrap;html=1;" vertex="1" parent="1">
          <mxGeometry x="240" y="440" width="80" height="40" as="geometry" />
        </mxCell>
        <mxCell id="hARLpwjasESxxqnFSny7-7" style="edgeStyle=orthogonalEdgeStyle;rounded=0;orthogonalLoop=1;jettySize=auto;html=1;startArrow=classicThin;startFill=1;entryX=0.5;entryY=1;entryDx=0;entryDy=0;endArrow=classicThin;endFill=1;" edge="1" parent="1" source="hARLpwjasESxxqnFSny7-3" target="hARLpwjasESxxqnFSny7-1">
          <mxGeometry relative="1" as="geometry">
            <mxPoint x="400" y="400" as="targetPoint" />
          </mxGeometry>
        </mxCell>
        <mxCell id="hARLpwjasESxxqnFSny7-10" style="rounded=0;orthogonalLoop=1;jettySize=auto;html=1;entryX=0;entryY=0.5;entryDx=0;entryDy=0;startArrow=classicThin;startFill=1;endArrow=classicThin;endFill=1;" edge="1" parent="1" source="hARLpwjasESxxqnFSny7-3" target="hARLpwjasESxxqnFSny7-5">
          <mxGeometry relative="1" as="geometry" />
        </mxCell>
        <mxCell id="hARLpwjasESxxqnFSny7-3" value="COPRAS" style="rounded=0;whiteSpace=wrap;html=1;" vertex="1" parent="1">
          <mxGeometry x="360" y="440" width="80" height="40" as="geometry" />
        </mxCell>
        <mxCell id="hARLpwjasESxxqnFSny7-8" style="rounded=0;orthogonalLoop=1;jettySize=auto;html=1;entryX=0.5;entryY=1;entryDx=0;entryDy=0;startArrow=classicThin;startFill=1;endArrow=classicThin;endFill=1;" edge="1" parent="1" source="hARLpwjasESxxqnFSny7-5" target="hARLpwjasESxxqnFSny7-1">
          <mxGeometry relative="1" as="geometry" />
        </mxCell>
        <mxCell id="hARLpwjasESxxqnFSny7-11" style="edgeStyle=orthogonalEdgeStyle;rounded=0;orthogonalLoop=1;jettySize=auto;html=1;entryX=0.5;entryY=1;entryDx=0;entryDy=0;startArrow=classicThin;startFill=1;endArrow=classicThin;endFill=1;" edge="1" parent="1" source="hARLpwjasESxxqnFSny7-5" target="hARLpwjasESxxqnFSny7-2">
          <mxGeometry relative="1" as="geometry">
            <Array as="points">
              <mxPoint x="520" y="500" />
              <mxPoint x="280" y="500" />
            </Array>
          </mxGeometry>
        </mxCell>
        <mxCell id="hARLpwjasESxxqnFSny7-5" value="SPOTIS" style="rounded=0;whiteSpace=wrap;html=1;" vertex="1" parent="1">
          <mxGeometry x="480" y="440" width="80" height="40" as="geometry" />
        </mxCell>
        <mxCell id="hARLpwjasESxxqnFSny7-13" value="&lt;font style=&quot;font-size: 10px;&quot;&gt;MCDA Method&lt;/font&gt;" style="text;html=1;align=left;verticalAlign=middle;resizable=0;points=[];autosize=1;strokeColor=none;fillColor=none;fontSize=10;" vertex="1" parent="1">
          <mxGeometry x="236" y="415" width="90" height="30" as="geometry" />
        </mxCell>
      </root>
    </mxGraphModel>
  </diagram>
</mxfile>
